<!-- This Source Code Form is subject to the terms of the Mozilla Public
   - License, v. 2.0. If a copy of the MPL was not distributed with this
   - file, You can obtain one at http://mozilla.org/MPL/2.0/. -->
<svg xmlns="http://www.w3.org/2000/svg"
     width="32" height="32" viewBox="0 0 32 32">
  <view id="blue" viewBox="0 32 32 32"/>
  <use href="#icon" fill="#37adff" x="0" y="32"/>
  <view id="turquoise" viewBox="0 64 32 32"/>
  <use href="#icon" fill="#00c79a" x="0" y="64"/>
  <view id="green" viewBox="0 96 32 32"/>
  <use href="#icon" fill="#51cd00" x="0" y="96"/>
  <view id="yellow" viewBox="0 128 32 32"/>
  <use href="#icon" fill="#ffcb00" x="0" y="128"/>
  <view id="orange" viewBox="0 160 32 32"/>
  <use href="#icon" fill="#ff9f00" x="0" y="160"/>
  <view id="red" viewBox="0 192 32 32"/>
  <use href="#icon" fill="#ff613d" x="0" y="192"/>
  <view id="pink" viewBox="0 224 32 32"/>
  <use href="#icon" fill="#ff4bda" x="0" y="224"/>
  <view id="purple" viewBox="0 256 32 32"/>
  <use href="#icon" fill="#af51f5" x="0" y="256"/>
  <path id="icon" fill-rule="evenodd"
        d="M23.1,5.3c0-1.4-1.2-2.7-2.8-2.7h-8.7c-1.4,0-2.7,1.2-2.7,2.7v4.4H7.1v19.6h17.8V9.8h-1.8V5.3z M20.8,9.8H11
  V5.3c0-0.4,0.2-0.5,0.5-0.5h8.7c0.4,0,0.5,0.2,0.5,0.5V9.8z M1.8,9.8h2.7v19.6H1.8c-0.9,0-1.8-0.9-1.8-1.8v-16
  C0,10.5,0.9,9.8,1.8,9.8z M32,11.6v16c0,0.9-0.7,1.8-1.8,1.8h-2.7V9.8h2.7C31.3,9.8,32,10.5,32,11.6z"/>
</svg>

